<?xml version="1.0" encoding="UTF-8"?>
<svg xmlns="http://www.w3.org/2000/svg" style="display:none">
  <symbol id="icon-envelope" viewBox="0 0 24 24">
    <path d="M3 8.5V18a2 2 0 0 0 2 2h14a2 2 0 0 0 2-2V8.5" stroke="currentColor" stroke-width="1.5" stroke-linecap="round" stroke-linejoin="round" fill="none"></path>
    <path d="M21 8.5l-9 6-9-6" stroke="currentColor" stroke-width="1.5" stroke-linecap="round" stroke-linejoin="round" fill="none"></path>
  </symbol>

  <symbol id="icon-phone" viewBox="0 0 24 24">
    <path d="M22 16.92v3a2 2 0 0 1-2.18 2A19.86 19.86 0 0 1 3 5.18 2 2 0 0 1 5 3h3a2 2 0 0 1 2 1.72c.12 1.05.37 2.07.74 3.03a2 2 0 0 1-.45 2.11L9.91 11.09a16 16 0 0 0 6 6l1.23-1.23a2 2 0 0 1 2.11-.45c.96.37 1.98.62 3.03.74A2 2 0 0 1 22 16.92z" stroke="currentColor" stroke-width="1.2" stroke-linecap="round" stroke-linejoin="round" fill="none"></path>
  </symbol>

  <symbol id="icon-location" viewBox="0 0 24 24">
    <path d="M21 10c0 6-9 11-9 11S3 16 3 10a9 9 0 1 1 18 0z" stroke="currentColor" stroke-width="1.5" stroke-linecap="round" stroke-linejoin="round" fill="none"></path>
    <circle cx="12" cy="10" r="2.5" stroke="currentColor" stroke-width="1.5" stroke-linecap="round" stroke-linejoin="round" fill="none"></circle>
  </symbol>

  <symbol id="icon-clock" viewBox="0 0 24 24">
    <circle cx="12" cy="12" r="9" stroke="currentColor" stroke-width="1.5" stroke-linecap="round" stroke-linejoin="round" fill="none"></circle>
    <path d="M12 7v6l4 2" stroke="currentColor" stroke-width="1.5" stroke-linecap="round" stroke-linejoin="round" fill="none"></path>
  </symbol>
</svg>
